<?xml version="1.0" encoding="utf-8"?>
<!-- Generator: Adobe Illustrator 17.0.0, SVG Export Plug-In . SVG Version: 6.00 Build 0)  -->
<!DOCTYPE svg PUBLIC "-//W3C//DTD SVG 1.1//EN" "http://www.w3.org/Graphics/SVG/1.1/DTD/svg11.dtd">
<svg version="1.1" id="Layer_1" xmlns="http://www.w3.org/2000/svg" xmlns:xlink="http://www.w3.org/1999/xlink" x="0px" y="0px"
	 width="50px" height="50px" viewBox="0 0 50 50" enable-background="new 0 0 50 50" xml:space="preserve">
<g>
	<path fill="#595959" d="M22.653,28.469c0,0.662-0.211,1.256-0.632,1.781c-0.421,0.526-0.954,0.938-1.598,1.237
		c-0.644,0.3-1.299,0.523-1.965,0.673c-0.666,0.15-1.298,0.225-1.897,0.225c-0.598,0-1.23-0.074-1.896-0.225
		c-0.667-0.149-1.322-0.373-1.965-0.673c-0.644-0.299-1.176-0.711-1.598-1.237c-0.421-0.525-0.632-1.119-0.632-1.781
		c0-0.1,0.159-0.467,0.476-1.102c0.317-0.635,0.734-1.426,1.251-2.373s1.001-1.833,1.455-2.658c0.453-0.825,0.916-1.659,1.387-2.502
		c0.472-0.843,0.726-1.296,0.762-1.36c0.163-0.299,0.417-0.449,0.761-0.449c0.345,0,0.599,0.149,0.762,0.449
		c0.036,0.063,0.29,0.517,0.762,1.36c0.471,0.843,0.934,1.677,1.387,2.502c0.453,0.825,0.938,1.711,1.455,2.658
		s0.934,1.738,1.251,2.373S22.653,28.369,22.653,28.469z M16.561,18.896l-5.222,9.573h10.444L16.561,18.896z M27.725,16.285
		c-0.127,0.363-0.332,0.687-0.617,0.972c-0.287,0.286-0.611,0.492-0.973,0.619v17.555h8.268c0.127,0,0.23,0.041,0.313,0.123
		c0.082,0.081,0.123,0.186,0.123,0.313v0.87c0,0.127-0.041,0.231-0.123,0.313c-0.082,0.082-0.186,0.123-0.313,0.123H16.126
		c-0.127,0-0.231-0.041-0.313-0.123c-0.082-0.081-0.123-0.186-0.123-0.313v-0.87c0-0.127,0.041-0.231,0.123-0.313
		c0.082-0.082,0.186-0.123,0.313-0.123h8.268V17.875c-0.363-0.127-0.687-0.333-0.973-0.619c-0.285-0.286-0.492-0.609-0.619-0.972
		h-6.677c-0.127,0-0.231-0.041-0.313-0.123s-0.123-0.186-0.123-0.313v-0.871c0-0.126,0.041-0.231,0.123-0.313
		s0.186-0.123,0.313-0.123h6.677c0.19-0.517,0.508-0.936,0.952-1.258c0.444-0.322,0.947-0.483,1.509-0.483s1.065,0.161,1.509,0.483
		c0.443,0.322,0.762,0.741,0.951,1.258h6.678c0.127,0,0.23,0.041,0.313,0.123s0.123,0.186,0.123,0.313v0.871
		c0,0.127-0.041,0.231-0.123,0.313s-0.186,0.123-0.313,0.123H27.725z M24.496,16.183c0.213,0.213,0.469,0.319,0.768,0.319
		s0.555-0.106,0.769-0.319c0.213-0.213,0.318-0.469,0.318-0.768c0-0.299-0.105-0.555-0.318-0.769
		c-0.214-0.213-0.47-0.319-0.769-0.319s-0.555,0.106-0.768,0.319c-0.213,0.213-0.32,0.469-0.32,0.769
		C24.176,15.713,24.283,15.97,24.496,16.183z M40.059,28.469c0,0.662-0.211,1.256-0.631,1.781c-0.422,0.526-0.955,0.938-1.6,1.237
		c-0.643,0.3-1.297,0.523-1.965,0.673c-0.666,0.15-1.299,0.225-1.896,0.225s-1.23-0.074-1.896-0.225
		c-0.666-0.149-1.322-0.373-1.965-0.673c-0.645-0.299-1.176-0.711-1.598-1.237c-0.422-0.525-0.633-1.119-0.633-1.781
		c0-0.1,0.158-0.467,0.477-1.102c0.316-0.635,0.734-1.426,1.25-2.373c0.518-0.947,1.002-1.833,1.455-2.658
		c0.453-0.825,0.916-1.659,1.387-2.502c0.473-0.843,0.727-1.296,0.762-1.36c0.164-0.299,0.418-0.449,0.762-0.449
		s0.598,0.149,0.762,0.449c0.037,0.063,0.291,0.517,0.762,1.36c0.471,0.843,0.934,1.677,1.387,2.502
		c0.453,0.825,0.938,1.711,1.455,2.658s0.934,1.738,1.252,2.373C39.9,28.002,40.059,28.369,40.059,28.469z M33.967,18.896
		l-5.221,9.573h10.443L33.967,18.896z"/>
</g>
</svg>
