<?xml version="1.0" encoding="utf-8"?>
<!-- Generator: Adobe Illustrator 17.0.0, SVG Export Plug-In . SVG Version: 6.00 Build 0)  -->
<!DOCTYPE svg PUBLIC "-//W3C//DTD SVG 1.1//EN" "http://www.w3.org/Graphics/SVG/1.1/DTD/svg11.dtd">
<svg version="1.1" id="Layer_1" xmlns="http://www.w3.org/2000/svg" xmlns:xlink="http://www.w3.org/1999/xlink" x="0px" y="0px"
	 width="50px" height="50px" viewBox="0 0 50 50" enable-background="new 0 0 50 50" xml:space="preserve">
<path fill="#595959" d="M42.126,27.467c-1.125-0.328-2.314-1.198-2.549-2.006c0.172-0.434,0.138-1.295-0.719-1.96
	c-0.017-0.013-0.031-0.028-0.044-0.045c0.305-3.369-0.703-3.978-1.325-4.496c-0.811-0.675-2.176-1.693-3.597-2.595
	c-0.769-0.489-1.834-0.814-3.335-0.814c-2.669,0-15.522,2.589-16.091,2.746c0,0-3.72,0.821-4.938,2.946
	C9.038,22.101,7.836,25.891,7.7,26.32c-0.118,0.372,0.089,0.768,0.461,0.886c0.071,0.022,0.142,0.033,0.213,0.033
	c0.3,0,0.578-0.193,0.673-0.494c0.494-1.566,1.394-4.253,1.707-4.799c0.477-0.832,1.276-1.296,1.994-1.554
	c-1.278,2.331-2.576,6.243-3.41,9.013c-1.266,4.206-1.266,4.423-1.266,4.423h2.544c0,0,1.736-2.694,2.363-3.151
	c2.269-1.651,7.586-1.632,9.678-1.291c-0.546-0.953-1.16-1.795-1.823-2.32c0,0,0.621-0.069,1.259,0.386
	c2.111,1.505,3.376,5.311,3.853,6.997h1.65c0,0,1.326-6.364,1.614-7.296c0.288-0.932,1.165-0.721,2.267-0.354
	c-0.041,1.654,1.974,2.563,2.161,3.808c0.087,0.582,0.44,0.919,1.019,1.077c0.383,0.105,2.13,0.009,2.205-0.053
	c0.075-0.061,0.193-0.459,0.312-0.919c0.326-1.265,0.478-1.823,0.801-2.142c0.218-0.215,0.348-0.424,0.423-0.612l0.45-0.95
	c1.185,0.785,2.462,0.913,3.134,0.849C42.492,27.807,42.36,27.535,42.126,27.467z M37.365,28.006
	c-0.287,0.062-0.577-0.154-0.648-0.482c-0.071-0.328,0.104-0.644,0.391-0.706c0.287-0.062,0.577,0.154,0.648,0.482
	C37.828,27.627,37.653,27.943,37.365,28.006z"/>
</svg>
