<?xml version="1.0" encoding="utf-8"?>
<!-- Generator: Adobe Illustrator 17.0.0, SVG Export Plug-In . SVG Version: 6.00 Build 0)  -->
<!DOCTYPE svg PUBLIC "-//W3C//DTD SVG 1.1//EN" "http://www.w3.org/Graphics/SVG/1.1/DTD/svg11.dtd">
<svg version="1.1" id="Layer_1" xmlns="http://www.w3.org/2000/svg" xmlns:xlink="http://www.w3.org/1999/xlink" x="0px" y="0px"
	 width="50px" height="50px" viewBox="0 0 50 50" enable-background="new 0 0 50 50" xml:space="preserve">
<g>
	<path fill="#595959" d="M26.867,13.174l11.66,21.377c0.354,0.638,0.344,1.275-0.031,1.913c-0.172,0.293-0.406,0.525-0.705,0.698
		c-0.299,0.172-0.619,0.258-0.965,0.258H13.507c-0.344,0-0.666-0.086-0.964-0.258c-0.298-0.173-0.534-0.405-0.706-0.698
		c-0.375-0.638-0.385-1.275-0.031-1.913l11.66-21.377c0.172-0.313,0.41-0.562,0.713-0.744s0.632-0.273,0.987-0.273
		s0.683,0.091,0.987,0.273C26.457,12.613,26.695,12.861,26.867,13.174z M27.08,27.355l0.273-6.969c0-0.122-0.051-0.218-0.152-0.289
		c-0.131-0.111-0.252-0.167-0.363-0.167h-3.341c-0.111,0-0.233,0.056-0.364,0.167c-0.102,0.071-0.152,0.177-0.152,0.319l0.258,6.939
		c0,0.101,0.051,0.185,0.152,0.25c0.101,0.066,0.223,0.099,0.365,0.099h2.809c0.141,0,0.26-0.032,0.355-0.099
		C27.018,27.54,27.07,27.456,27.08,27.355z M27.111,33.033v-2.885c0-0.142-0.049-0.261-0.145-0.356
		c-0.098-0.097-0.211-0.145-0.342-0.145h-2.916c-0.131,0-0.245,0.048-0.341,0.145c-0.096,0.096-0.145,0.215-0.145,0.356v2.885
		c0,0.142,0.048,0.261,0.145,0.356c0.096,0.097,0.21,0.145,0.341,0.145h2.916c0.131,0,0.244-0.048,0.342-0.145
		C27.063,33.294,27.111,33.175,27.111,33.033z"/>
</g>
</svg>
